<svg width="32" height="32" viewBox="0 0 32 32" xmlns="http://www.w3.org/2000/svg">
  <!-- Background circle with gradient -->
  <defs>
    <radialGradient id="bgGradient" cx="50%" cy="50%" r="50%">
      <stop offset="0%" style="stop-color:#2D5A27;stop-opacity:1" />
      <stop offset="100%" style="stop-color:#1A3D1A;stop-opacity:1" />
    </radialGradient>
    <linearGradient id="bookGradient" x1="0%" y1="0%" x2="100%" y2="100%">
      <stop offset="0%" style="stop-color:#D4AF37;stop-opacity:1" />
      <stop offset="100%" style="stop-color:#B8860B;stop-opacity:1" />
    </linearGradient>
  </defs>
  
  <!-- Background -->
  <circle cx="16" cy="16" r="16" fill="url(#bgGradient)"/>
  
  <!-- Book base -->
  <rect x="8" y="10" width="16" height="12" rx="1" fill="url(#bookGradient)" stroke="#8B4513" stroke-width="0.5"/>
  
  <!-- Book pages -->
  <rect x="9" y="11" width="14" height="10" fill="#FFF8DC" stroke="#DDD" stroke-width="0.3"/>
  
  <!-- Book spine -->
  <rect x="8" y="10" width="2" height="12" rx="1" fill="#8B4513"/>
  
  <!-- Arabic letter Jim (ج) -->
  <g transform="translate(16,16)">
    <path d="M-3,-2 Q-1,-4 1,-2 Q3,-1 2,1 Q1,2 -1,1 Q-2,2 -3,1 Q-4,0 -3,-1 Z" 
          fill="#2D5A27" 
          stroke="#1A3D1A" 
          stroke-width="0.3"/>
    <!-- Dot for Jim -->
    <circle cx="0" cy="-4" r="0.8" fill="#2D5A27"/>
  </g>
  
  <!-- Decorative elements -->
  <circle cx="12" cy="8" r="1" fill="#D4AF37" opacity="0.6"/>
  <circle cx="20" cy="8" r="1" fill="#D4AF37" opacity="0.6"/>
  
  <!-- Subtle border -->
  <circle cx="16" cy="16" r="15.5" fill="none" stroke="#D4AF37" stroke-width="0.5" opacity="0.8"/>
</svg>